<mxfile host="Electron" agent="Mozilla/5.0 (Windows NT 10.0; Win64; x64) AppleWebKit/537.36 (KHTML, like Gecko) draw.io/28.1.2 Chrome/138.0.7204.243 Electron/37.4.0 Safari/537.36" version="28.1.2">
  <diagram name="Page-1" id="GrkqH6zUQo935JGeTeAD">
    <mxGraphModel dx="1622" dy="501" grid="1" gridSize="10" guides="1" tooltips="1" connect="1" arrows="1" fold="1" page="1" pageScale="1" pageWidth="850" pageHeight="1100" math="0" shadow="0">
      <root>
        <mxCell id="0" />
        <mxCell id="1" parent="0" />
        <mxCell id="05mpoEOhicNY9tlORV_2-1" value="&lt;b&gt;&lt;font style=&quot;font-size: 24px;&quot;&gt;Integration Model &lt;/font&gt;&lt;/b&gt;(How tables are related)" style="text;html=1;align=center;verticalAlign=middle;resizable=0;points=[];autosize=1;strokeColor=none;fillColor=none;" vertex="1" parent="1">
          <mxGeometry x="-140" width="360" height="40" as="geometry" />
        </mxCell>
        <mxCell id="05mpoEOhicNY9tlORV_2-21" value="crm_prd_info" style="swimlane;fontStyle=0;childLayout=stackLayout;horizontal=1;startSize=26;fillColor=none;horizontalStack=0;resizeParent=1;resizeParentMax=0;resizeLast=0;collapsible=1;marginBottom=0;html=1;" vertex="1" parent="1">
          <mxGeometry x="40" y="180" width="140" height="52" as="geometry" />
        </mxCell>
        <mxCell id="05mpoEOhicNY9tlORV_2-22" value="prd_key" style="text;strokeColor=none;fillColor=none;align=left;verticalAlign=top;spacingLeft=4;spacingRight=4;overflow=hidden;rotatable=0;points=[[0,0.5],[1,0.5]];portConstraint=eastwest;whiteSpace=wrap;html=1;" vertex="1" parent="05mpoEOhicNY9tlORV_2-21">
          <mxGeometry y="26" width="140" height="26" as="geometry" />
        </mxCell>
        <mxCell id="05mpoEOhicNY9tlORV_2-25" value="crm_prd_info" style="swimlane;fontStyle=0;childLayout=stackLayout;horizontal=1;startSize=26;fillColor=none;horizontalStack=0;resizeParent=1;resizeParentMax=0;resizeLast=0;collapsible=1;marginBottom=0;html=1;dashed=1;" vertex="1" parent="1">
          <mxGeometry x="40" y="320" width="140" height="52" as="geometry" />
        </mxCell>
        <mxCell id="05mpoEOhicNY9tlORV_2-26" value="cst_id" style="text;strokeColor=none;fillColor=none;align=left;verticalAlign=top;spacingLeft=4;spacingRight=4;overflow=hidden;rotatable=0;points=[[0,0.5],[1,0.5]];portConstraint=eastwest;whiteSpace=wrap;html=1;dashed=1;" vertex="1" parent="05mpoEOhicNY9tlORV_2-25">
          <mxGeometry y="26" width="140" height="26" as="geometry" />
        </mxCell>
        <mxCell id="05mpoEOhicNY9tlORV_2-33" style="edgeStyle=orthogonalEdgeStyle;rounded=0;orthogonalLoop=1;jettySize=auto;html=1;entryX=0;entryY=0.5;entryDx=0;entryDy=0;" edge="1" parent="1" source="05mpoEOhicNY9tlORV_2-27" target="05mpoEOhicNY9tlORV_2-21">
          <mxGeometry relative="1" as="geometry" />
        </mxCell>
        <mxCell id="05mpoEOhicNY9tlORV_2-27" value="crm_sales_details" style="swimlane;fontStyle=0;childLayout=stackLayout;horizontal=1;startSize=26;fillColor=none;horizontalStack=0;resizeParent=1;resizeParentMax=0;resizeLast=0;collapsible=1;marginBottom=0;html=1;" vertex="1" parent="1">
          <mxGeometry x="-180" y="240" width="140" height="70" as="geometry" />
        </mxCell>
        <mxCell id="05mpoEOhicNY9tlORV_2-28" value="&lt;div&gt;prd_key&lt;/div&gt;cst_id" style="text;strokeColor=none;fillColor=none;align=left;verticalAlign=top;spacingLeft=4;spacingRight=4;overflow=hidden;rotatable=0;points=[[0,0.5],[1,0.5]];portConstraint=eastwest;whiteSpace=wrap;html=1;" vertex="1" parent="05mpoEOhicNY9tlORV_2-27">
          <mxGeometry y="26" width="140" height="44" as="geometry" />
        </mxCell>
        <mxCell id="05mpoEOhicNY9tlORV_2-29" value="Transactional Records about&amp;nbsp;&lt;div&gt;sales and orders&lt;/div&gt;" style="text;html=1;align=center;verticalAlign=middle;resizable=0;points=[];autosize=1;strokeColor=none;fillColor=none;fontSize=9;" vertex="1" parent="1">
          <mxGeometry x="-180" y="200" width="140" height="40" as="geometry" />
        </mxCell>
        <mxCell id="05mpoEOhicNY9tlORV_2-31" value="erp_px_cat_g1v2" style="swimlane;fontStyle=0;childLayout=stackLayout;horizontal=1;startSize=26;fillColor=none;horizontalStack=0;resizeParent=1;resizeParentMax=0;resizeLast=0;collapsible=1;marginBottom=0;html=1;" vertex="1" parent="1">
          <mxGeometry x="400" y="148" width="140" height="52" as="geometry" />
        </mxCell>
        <mxCell id="05mpoEOhicNY9tlORV_2-32" value="id" style="text;strokeColor=none;fillColor=none;align=left;verticalAlign=top;spacingLeft=4;spacingRight=4;overflow=hidden;rotatable=0;points=[[0,0.5],[1,0.5]];portConstraint=eastwest;whiteSpace=wrap;html=1;" vertex="1" parent="05mpoEOhicNY9tlORV_2-31">
          <mxGeometry y="26" width="140" height="26" as="geometry" />
        </mxCell>
        <mxCell id="05mpoEOhicNY9tlORV_2-34" style="edgeStyle=orthogonalEdgeStyle;rounded=0;orthogonalLoop=1;jettySize=auto;html=1;exitX=1;exitY=0.5;exitDx=0;exitDy=0;entryX=0;entryY=0.5;entryDx=0;entryDy=0;" edge="1" parent="1" source="05mpoEOhicNY9tlORV_2-28" target="05mpoEOhicNY9tlORV_2-26">
          <mxGeometry relative="1" as="geometry" />
        </mxCell>
        <mxCell id="05mpoEOhicNY9tlORV_2-35" value="erp_cust_az12" style="swimlane;fontStyle=0;childLayout=stackLayout;horizontal=1;startSize=26;fillColor=none;horizontalStack=0;resizeParent=1;resizeParentMax=0;resizeLast=0;collapsible=1;marginBottom=0;html=1;" vertex="1" parent="1">
          <mxGeometry x="400" y="258" width="140" height="52" as="geometry" />
        </mxCell>
        <mxCell id="05mpoEOhicNY9tlORV_2-36" value="cid" style="text;strokeColor=none;fillColor=none;align=left;verticalAlign=top;spacingLeft=4;spacingRight=4;overflow=hidden;rotatable=0;points=[[0,0.5],[1,0.5]];portConstraint=eastwest;whiteSpace=wrap;html=1;" vertex="1" parent="05mpoEOhicNY9tlORV_2-35">
          <mxGeometry y="26" width="140" height="26" as="geometry" />
        </mxCell>
        <mxCell id="05mpoEOhicNY9tlORV_2-37" value="erp_loc_a101" style="swimlane;fontStyle=0;childLayout=stackLayout;horizontal=1;startSize=26;fillColor=none;horizontalStack=0;resizeParent=1;resizeParentMax=0;resizeLast=0;collapsible=1;marginBottom=0;html=1;" vertex="1" parent="1">
          <mxGeometry x="400" y="350" width="140" height="52" as="geometry" />
        </mxCell>
        <mxCell id="05mpoEOhicNY9tlORV_2-38" value="cid" style="text;strokeColor=none;fillColor=none;align=left;verticalAlign=top;spacingLeft=4;spacingRight=4;overflow=hidden;rotatable=0;points=[[0,0.5],[1,0.5]];portConstraint=eastwest;whiteSpace=wrap;html=1;" vertex="1" parent="05mpoEOhicNY9tlORV_2-37">
          <mxGeometry y="26" width="140" height="26" as="geometry" />
        </mxCell>
        <mxCell id="05mpoEOhicNY9tlORV_2-39" style="edgeStyle=orthogonalEdgeStyle;rounded=0;orthogonalLoop=1;jettySize=auto;html=1;exitX=0;exitY=0.5;exitDx=0;exitDy=0;entryX=0.99;entryY=-0.064;entryDx=0;entryDy=0;entryPerimeter=0;" edge="1" parent="1" source="05mpoEOhicNY9tlORV_2-31" target="05mpoEOhicNY9tlORV_2-22">
          <mxGeometry relative="1" as="geometry" />
        </mxCell>
        <mxCell id="05mpoEOhicNY9tlORV_2-40" style="edgeStyle=orthogonalEdgeStyle;rounded=0;orthogonalLoop=1;jettySize=auto;html=1;entryX=1.024;entryY=-0.064;entryDx=0;entryDy=0;entryPerimeter=0;" edge="1" parent="1" source="05mpoEOhicNY9tlORV_2-36" target="05mpoEOhicNY9tlORV_2-26">
          <mxGeometry relative="1" as="geometry" />
        </mxCell>
        <mxCell id="05mpoEOhicNY9tlORV_2-42" style="edgeStyle=orthogonalEdgeStyle;rounded=0;orthogonalLoop=1;jettySize=auto;html=1;entryX=1.01;entryY=0.064;entryDx=0;entryDy=0;entryPerimeter=0;" edge="1" parent="1" source="05mpoEOhicNY9tlORV_2-37" target="05mpoEOhicNY9tlORV_2-26">
          <mxGeometry relative="1" as="geometry" />
        </mxCell>
        <mxCell id="05mpoEOhicNY9tlORV_2-43" value="Current &amp;amp; History Product Inofrmation" style="text;html=1;align=center;verticalAlign=middle;resizable=0;points=[];autosize=1;strokeColor=none;fillColor=none;fontSize=10;" vertex="1" parent="1">
          <mxGeometry x="15" y="148" width="190" height="30" as="geometry" />
        </mxCell>
        <mxCell id="05mpoEOhicNY9tlORV_2-44" value="Customer Information" style="text;html=1;align=center;verticalAlign=middle;resizable=0;points=[];autosize=1;strokeColor=none;fillColor=none;fontSize=10;" vertex="1" parent="1">
          <mxGeometry x="50" y="290" width="120" height="30" as="geometry" />
        </mxCell>
        <mxCell id="05mpoEOhicNY9tlORV_2-45" value="Product Categories" style="text;html=1;align=center;verticalAlign=middle;resizable=0;points=[];autosize=1;strokeColor=none;fillColor=none;fontSize=10;" vertex="1" parent="1">
          <mxGeometry x="415" y="118" width="110" height="30" as="geometry" />
        </mxCell>
        <mxCell id="05mpoEOhicNY9tlORV_2-46" value="&lt;font style=&quot;font-size: 10px;&quot;&gt;Extra Customer Information (Birthdate)&lt;/font&gt;" style="text;html=1;align=center;verticalAlign=middle;resizable=0;points=[];autosize=1;strokeColor=none;fillColor=none;" vertex="1" parent="1">
          <mxGeometry x="380" y="228" width="200" height="30" as="geometry" />
        </mxCell>
        <mxCell id="05mpoEOhicNY9tlORV_2-47" value="Location of Customers (Country)" style="text;html=1;align=center;verticalAlign=middle;resizable=0;points=[];autosize=1;strokeColor=none;fillColor=none;fontSize=10;" vertex="1" parent="1">
          <mxGeometry x="380" y="320" width="170" height="30" as="geometry" />
        </mxCell>
        <mxCell id="05mpoEOhicNY9tlORV_2-49" value="" style="rounded=1;whiteSpace=wrap;html=1;fillColor=none;dashed=1;" vertex="1" parent="1">
          <mxGeometry x="-210" y="110" width="440" height="290" as="geometry" />
        </mxCell>
        <mxCell id="05mpoEOhicNY9tlORV_2-50" value="" style="rounded=1;whiteSpace=wrap;html=1;fillColor=none;dashed=1;" vertex="1" parent="1">
          <mxGeometry x="260" y="100" width="400" height="330" as="geometry" />
        </mxCell>
        <mxCell id="05mpoEOhicNY9tlORV_2-51" value="&lt;b&gt;&lt;font style=&quot;font-size: 18px;&quot;&gt;CRM&lt;/font&gt;&lt;/b&gt;" style="rounded=1;whiteSpace=wrap;html=1;fillColor=#A9C4EB;fontColor=#030303;" vertex="1" parent="1">
          <mxGeometry x="-50" y="90" width="120" height="40" as="geometry" />
        </mxCell>
        <mxCell id="05mpoEOhicNY9tlORV_2-52" value="&lt;b&gt;&lt;font style=&quot;font-size: 18px; color: rgb(3, 3, 3);&quot;&gt;ERP&lt;/font&gt;&lt;/b&gt;" style="rounded=1;whiteSpace=wrap;html=1;fillColor=#FFFFCC;strokeColor=#030303;" vertex="1" parent="1">
          <mxGeometry x="400" y="70" width="120" height="40" as="geometry" />
        </mxCell>
      </root>
    </mxGraphModel>
  </diagram>
</mxfile>
